<?xml version="1.0" standalone="no"?>
<!DOCTYPE svg PUBLIC "-//W3C//DTD SVG 1.1//EN" "http://www.w3.org/Graphics/SVG/1.1/DTD/svg11.dtd" >
<svg xmlns="http://www.w3.org/2000/svg">
<metadata>
This is a custom SVG font generated by IcoMoon.
<iconset id="icons" name="icons" grid="16"></iconset><author name="yuanyan" href="http://madscript.com"></author><license name="MIT" href="http://yuanyan.mit-license.org"></license>
</metadata>
<defs>
<font id="icons" horiz-adv-x="512" >
<font-face units-per-em="512" ascent="480" descent="-32" />
<missing-glyph horiz-adv-x="512" />
<glyph class="hidden" unicode="&#xf000;" d="M0,480L 512 -32L0 -32 z" horiz-adv-x="0" />
<glyph unicode="&#xe000;" d="M 465.455,14.545c0,0-372.364,0-418.909,0s-46.545,46.545-46.545,46.545l0,162.909 l 116.364,209.455l 279.273,0 l 116.364-209.455c0,0,0-116.364,0-162.909S 465.455,14.545, 465.455,14.545z M 372.364,386.909L 139.636,386.909 
	l-81.455-162.909l 395.636,0 L 372.364,386.909z M 465.455,177.455L 46.545,177.455 l0-116.364 l 418.909,0 L 465.455,177.455 z M 302.545,107.636L 209.455,107.636 l0,23.273 l 93.091,0 L 302.545,107.636 z M 360.727,293.818L 372.364,270.545L 139.636,270.545 l 11.636,23.273L 360.727,293.818 z M 174.545,340.364l 162.909,0 L 349.091,317.091L 162.909,317.091 L 174.545,340.364z"  />
<glyph unicode="&#xe001;" d="M0,171.904l 160.672-103.312l0,74.576 L 65.008,202.24l 95.664,59.072L 160.672,336.4 L0,232.56L0,171.904 z M 194.656,32l 55.296,0 l 81.024,384l-55.664,0 
			L 194.656,32z M 351.344,336.4l0-75.088 l 95.632-59.072l-95.632-59.056l0-74.576 L 512,171.904l0,60.656 L 351.344,336.4z"  />
<glyph unicode="&#xe002;" d="M 447.674,381.417L 413.091,416L 453.818,456.727c0,0, 34.909,0.721, 34.909-34.188L 447.674,381.417z M 69.818,363.636l0-325.818 
	l 325.818,0 L 395.636,258.909 l 46.545,46.545L 442.182,37.818 c0-25.693-20.852-46.545-46.545-46.545L 69.818-8.727 c-25.693,0-46.545,20.852-46.545,46.545L 23.273,363.636 c0,25.693, 20.852,46.545, 46.545,46.545l 267.636,0 l-46.545-46.545L 69.818,363.636 z M 186.182,154.182l0,34.909 l 17.455,17.455l 34.886-34.886
	L 221.091,154.182L 186.182,154.182 z M 424.448,358.097l-174.313-174.778L 215.273,218.182l 174.545,174.545L 424.448,358.097z"  />
<glyph unicode="&#xe003;" d="M 512,270.545l0-93.091 l-57.088-19.014c-3.258-9.868-7.447-19.223-12.055-28.393l 27.066-54.156l-65.839-65.815
	l-54.202,27.113c-9.123-4.585-18.479-8.774-28.3-12.009L 302.545-32L 209.455-32 l-19.060,57.181c-9.821,3.235-19.177,7.401-28.276,12.009l-54.225-27.113
	l-65.839,65.815l 27.089,54.156c-4.608,9.169-8.797,18.525-12.055,28.393L0,177.455L0,270.545 l 57.088,19.014c 3.258,9.868, 7.447,19.223, 12.055,28.393L 42.077,372.108
	l 65.839,65.815l 54.225-27.113c 9.123,4.585, 18.455,8.774, 28.276,12.009L 209.455,480l 93.091,0 l 19.037-57.181c 9.821-3.235, 19.177-7.401, 28.3-12.009l 54.202,27.113
	l 65.839-65.815l-27.066-54.156c 4.585-9.169, 8.797-18.525, 12.055-28.393L 512,270.545z M 416.721,247.808c-4.026,27.066-14.778,51.875-30.348,72.797
	l 25.926,43.264L 395.869,380.346L 352.582,354.374c-20.945,15.476-45.684,26.135-72.727,30.138L 267.636,433.455l-23.273,0 L 232.122,384.489C 205.103,380.509, 180.364,369.85, 159.418,354.374
	L 116.131,380.346L 99.677,363.892l 25.949-43.264C 110.033,299.683, 99.305,274.897, 95.279,247.808L 46.545,235.636l0-23.273 l 48.733-12.172
	c 4.003-27.066, 14.755-51.875, 30.324-72.797l-25.949-43.264l 16.454-16.454l 43.287,25.972c 20.922-15.476, 45.684-26.135, 72.704-30.138L 244.364,14.545l 23.273,0 
	l 12.218,48.966c 27.043,4.003, 51.782,14.662, 72.727,30.138l 43.264-25.972l 16.454,16.454l-25.926,43.264c 15.569,20.922, 26.321,45.731, 30.348,72.797
	L 465.455,212.364l0,23.273 L 416.721,247.808z M 256,154.182c-38.563,0-69.818,31.255-69.818,69.818s 31.255,69.818, 69.818,69.818c 38.54,0, 69.818-31.255, 69.818-69.818S 294.54,154.182, 256,154.182z M 256,247.273
	c-12.847,0-23.273-10.403-23.273-23.273s 10.426-23.273, 23.273-23.273c 12.87,0, 23.273,10.403, 23.273,23.273S 268.87,247.273, 256,247.273z"  />
<glyph unicode="&#xe004;" d="M0,128L 256.016,64L 512,128L 512,64L 256.016,0L0,64 		zM0,256L 256.016,192L 512,256L 512,192L 256.016,128L0,192 		zM0,384L 256.016,448L 512,384L 512,320L 256.016,256L0,320 		z" horiz-adv-x="511"  />
<glyph unicode="&#xe005;" d="M 224,82.745L 121.373,201.372L 150.627,230.627L 224,173.255L 361.372,294.627L 390.628,265.373 	zM 415.886,416c 0.039-0.033, 0.081-0.075, 0.114-0.115l0-383.771 c-0.033-0.039-0.075-0.081-0.114-0.114L 96.114,32 
	c-0.040,0.033-0.081,0.075-0.114,0.114L 96,415.886 c 0.033,0.040, 0.075,0.081, 0.115,0.114L 32,416 l0-384 c0-35.2, 28.8-64, 64-64l 320,0 
	c 35.2,0, 64,28.8, 64,64L 480,416 L 415.886,416 z M 320,416L 320,448 c0,17.673-14.327,32-32,32l-64,0 c-17.673,0-32-14.327-32-32l0-32 l-64,0 l0-64 l 256,0 L 384,416 L 320,416 z
	 M 288,416l-64,0 L 224,448 l 64,0 L 288,416 z"  />
<glyph unicode="&#xe006;" d="M 256,480C 114.615,480,0,365.385,0,224s 114.615-256, 256-256s 256,114.615, 256,256S 397.385,480, 256,480z M 408.028,71.972
	c-19.759-19.758-42.756-35.266-68.354-46.093c-6.503-2.75-13.107-5.164-19.8-7.246L 319.874,57 c0,20.167-6.917,35-20.75,44.5
	c 8.667,0.833, 16.625,2, 23.875,3.5s 14.917,3.667, 23,6.5s 15.333,6.208, 21.75,10.125s 12.583,9, 18.5,15.25s 10.875,13.333, 14.875,21.25
	s 7.167,17.417, 9.5,28.5s 3.5,23.292, 3.5,36.625c0,25.833-8.417,47.833-25.25,66c 7.667,20, 6.833,41.75-2.5,65.25l-6.25,0.75
	c-4.333,0.5-12.125-1.333-23.375-5.5s-23.875-11-37.875-20.5c-19.833,5.5-40.417,8.25-61.75,8.25c-21.5,0-42-2.75-61.5-8.25
	c-8.833,6-17.208,10.958-25.125,14.875c-7.917,3.917-14.25,6.583-19,8s-9.167,2.292-13.25,2.625s-6.708,0.417-7.875,0.25
	s-2-0.333-2.5-0.5c-9.333-23.667-10.167-45.417-2.5-65.25c-16.833-18.167-25.25-40.167-25.25-66c0-13.333, 1.167-25.542, 3.5-36.625
	s 5.5-20.583, 9.5-28.5s 8.958-15, 14.875-21.25s 12.083-11.333, 18.5-15.25s 13.667-7.292, 21.75-10.125s 15.75-5, 23-6.5
	s 15.208-2.667, 23.875-3.5c-13.667-9.333-20.5-24.167-20.5-44.5l0-39.115 c-7.549,2.247-14.99,4.902-22.3,7.994
	c-25.597,10.827-48.594,26.335-68.353,46.093c-19.758,19.759-35.267,42.756-46.093,68.354C 46.679,166.805, 41,194.957, 41,224
	s 5.679,57.195, 16.879,83.675c 10.827,25.597, 26.335,48.594, 46.093,68.353s 42.756,35.267, 68.353,46.093
	C 198.805,433.321, 226.957,439, 256,439s 57.195-5.679, 83.675-16.879c 25.598-10.827, 48.595-26.335, 68.354-46.093
	c 19.758-19.758, 35.266-42.756, 46.093-68.353C 465.321,281.195, 471,253.043, 471,224s-5.679-57.195-16.879-83.675
	C 443.294,114.728, 427.786,91.73, 408.028,71.972z"  />
<glyph unicode="&#xe007;" d="M 279.273,14.545l-46.545,0 c-35.956,0-69.865,8.378-100.259,22.947L 23.273-32l 15.127,151.366
	C 14.173,156.067,0,200.006,0,247.273C0,375.808, 104.192,480, 232.727,480l 46.545,0 c 128.535,0, 232.727-104.192, 232.727-232.727C 512,118.737, 407.808,14.545, 279.273,14.545z M 279.273,433.455l-46.545,0 
	c-102.819,0-186.182-83.363-186.182-186.182c0-102.819, 83.363-186.182, 186.182-186.182l 46.545,0 c 102.819,0, 186.182,83.363, 186.182,186.182C 465.455,350.092, 382.092,433.455, 279.273,433.455z M 349.091,224c-12.87,0-23.273,10.426-23.273,23.273s 10.403,23.273, 23.273,23.273
	s 23.273-10.426, 23.273-23.273S 361.961,224, 349.091,224z M 256,224c-12.847,0-23.273,10.426-23.273,23.273s 10.426,23.273, 23.273,23.273c 12.87,0, 23.273-10.426, 23.273-23.273S 268.87,224, 256,224z M 162.909,224
	c-12.847,0-23.273,10.426-23.273,23.273s 10.426,23.273, 23.273,23.273s 23.273-10.426, 23.273-23.273S 175.756,224, 162.909,224z"  />
<glyph unicode="&#xe008;" d="M 256-32C 114.618-32,0,82.618,0,224S 114.618,480, 256,480s 256-114.618, 256-256S 397.382-32, 256-32z
	 M 256,433.455c-115.689,0-209.455-93.766-209.455-209.455s 93.766-209.455, 209.455-209.455s 209.455,93.766, 209.455,209.455S 371.689,433.455, 256,433.455z M 232.727,84.364c-23.273,0-23.273,23.273-23.273,23.273l 23.273,116.364c0,0,0,23.273-23.273,23.273c0,0-23.273,0-23.273,23.273l 69.818,0 
	c0,0, 23.273,0, 23.273-23.273s-23.273-93.091-23.273-116.364s 23.273-23.273, 23.273-23.273l 23.273,0 C 302.545,107.636, 302.545,84.364, 232.727,84.364z M 279.273,317.091c-12.87,0-23.273,10.403-23.273,23.273s 10.403,23.273, 23.273,23.273s 23.273-10.403, 23.273-23.273S 292.143,317.091, 279.273,317.091z"  />
<glyph unicode="&#xe009;" d="M 106.667,288L 426.667,288L 426.667,181.333L 106.667,181.333z"  />
<glyph unicode="&#xe00a;" d="M 288,160L 288,64L 352,64L 256-32L 160,64L 224,64L 224,160 		zM 224,288L 224,384L 160,384L 256,480L 352,384L 288,384L 288,288 		zM 192,192L 96,192L 96,128L0,224L 96,320L 96,256L 192,256 		zM 320,256L 416,256L 416,320L 512,224L 416,128L 416,192L 320,192 		z"  />
<glyph unicode="&#xe00b;" d="M 320,406.706l0-67.979 c 18.103-7.902, 34.75-19.204, 49.137-33.59C 399.358,274.917, 416,234.737, 416,192
		s-16.643-82.917-46.863-113.137C 338.917,48.643, 298.738,32, 256,32s-82.917,16.643-113.137,46.863
		C 112.643,109.083, 96,149.263, 96,192s 16.643,82.917, 46.863,113.137c 14.387,14.387, 31.034,25.689, 49.137,33.591L 192,406.706 
		C 99.476,379.166, 32,293.47, 32,192c0-123.712, 100.289-224, 224-224c 123.712,0, 224,100.288, 224,224
		C 480,293.47, 412.525,379.166, 320,406.706zM 224,480L 288,480L 288,224L 224,224z"  />
<glyph unicode="&#xe00c;" d="M 480,448 L 480,266 L 410,336 L 326,252 L 284,294 L 368,378 L 298,448 ZM 228,154 L 144,70 L 214,0 L 32,0 L 32,182 L 102,112 L 186,196 Z"  />
<glyph unicode="&#xe00d;" d="M 256-32C 114.618-32,0,82.618,0,224S 114.618,480, 256,480s 256-114.618, 256-256S 397.382-32, 256-32z
	 M 256,433.455c-115.689,0-209.455-93.766-209.455-209.455s 93.766-209.455, 209.455-209.455s 209.455,93.766, 209.455,209.455S 371.689,433.455, 256,433.455z M 279.273,180.759C 279.273,168.006, 279.273,154.182, 279.273,154.182l-46.545,0 c0,0,0,33.676,0,46.545
	s 10.426,23.273, 23.273,23.273l0,0c 25.693,0, 46.545,20.852, 46.545,46.545s-20.852,46.545-46.545,46.545S 209.455,296.239, 209.455,270.545c0-8.518, 2.444-16.407, 6.447-23.273L 166.214,247.273 C 164.259,254.743, 162.909,262.47, 162.909,270.545
	c0,51.409, 41.681,93.091, 93.091,93.091s 93.091-41.681, 93.091-93.091C 349.091,227.235, 319.372,191.139, 279.273,180.759z M 279.273,84.364l-46.545,0 l0,46.545 l 46.545,0 L 279.273,84.364 z"  />
<glyph unicode="&#xe00e;" d="M 465.455,386.909l-23.273,0 l0-372.364 c0-25.693-20.852-46.545-46.545-46.545L 116.364-32 c-25.693,0-46.545,20.852-46.545,46.545L 69.818,386.909 L 46.545,386.909 C 33.699,386.909, 23.273,397.312, 23.273,410.182
	s 10.426,23.273, 23.273,23.273l 139.636,0 c0,25.693, 20.852,46.545, 46.545,46.545l 46.545,0 c 25.693,0, 46.545-20.852, 46.545-46.545l 139.636,0 c 12.87,0, 23.273-10.403, 23.273-23.273S 478.324,386.909, 465.455,386.909z M 395.636,386.909L 116.364,386.909 l0-372.364 l 279.273,0 L 395.636,386.909 z M 209.455,340.364
	c 12.847,0, 23.273-10.403, 23.273-23.273l0-232.727 c0-12.87-10.426-23.273-23.273-23.273s-23.273,10.403-23.273,23.273L 186.182,317.091 C 186.182,329.961, 196.608,340.364, 209.455,340.364z M 302.545,340.364c 12.87,0, 23.273-10.403, 23.273-23.273l0-232.727 
	c0-12.87-10.403-23.273-23.273-23.273s-23.273,10.403-23.273,23.273L 279.273,317.091 C 279.273,329.961, 289.676,340.364, 302.545,340.364z"  />
<glyph unicode="&#xe00f;" d="M 453.469,26.508c-45.452-45.405-119.11-45.405-164.561,0l-49.361,49.408
	c-15.034,15.011-24.576,33.187-29.673,52.317c 15.313,1.862, 30.394,5.865, 44.777,12.102c 3.049-11.543, 8.797-22.505, 17.827-31.511l 49.361-49.408
	c 27.276-27.229, 71.471-27.229, 98.746,0c 27.252,27.276, 27.252,71.494,0,98.769l-49.385,49.361c-21.457,21.457-53.318,25.763-79.244,13.428l 46.336-46.336
	c 9.1-9.1, 9.1-23.808,0-32.908s-23.808-9.1-32.908,0l-51.014,50.991c-45.172-29.905-106.636-24.995-146.455,14.801L 58.531,256.908
	c-45.428,45.452-45.428,119.133,0,164.561s 119.11,45.452, 164.561,0l 49.361-49.385c 15.034-15.011, 24.599-33.21, 29.673-52.364
	c-15.313-1.862-30.394-5.865-44.777-12.055c-3.049,11.52-8.797,22.458-17.827,31.511L 190.185,388.561C 162.909,415.814, 118.714,415.814, 91.439,388.561
	C 64.186,361.286, 64.186,317.091, 91.439,289.815l 49.361-49.385c 21.481-21.457, 53.341-25.763, 79.267-13.428L 173.731,273.361c-9.1,9.1-9.1,23.831,0,32.931
	s 23.808,9.1, 32.908,0l 51.014-51.037c 45.172,29.929, 106.636,25.018, 146.455-14.801l 49.361-49.361C 498.921,145.641, 498.921,71.959, 453.469,26.508z"  />
<glyph unicode="&#xe010;" d="M 512,64l0-96 l-96,0 l0,32 l-96,0 l0-32 L 192-32 l0,32 L 96,0 l0-32 L0-32 l0,96 l 32,0 l0,96 L0,160 L0,288 l 32,0 L 32,384 L0,384 L0,480 l 96,0 l0-32 l 96,0 L 192,480 l 128,0 l0-32 l 96,0 L 416,480 l 96,0 l0-96 l-32,0 
	l0-96 l 32,0 l0-128 l-32,0 l0-96 L 512,64 z M 224,0l 64,0 l0,64 L 224,64 L 224,0 z M 32,0l 32,0 l0,32 L 32,32 L 32,0 z M 32,192l 64,0 L 96,256 L 32,256 L 32,192 z M 64,448L 32,448 l0-32 l 32,0 L 64,448 z M 288,448L 224,448 l0-64 l 64,0 L 288,448 z M 416,416l-96,0 l0-64 L 192,352 L 192,416 L 96,416 l0-32 L 64,384 l0-96 l 64,0 l0-128 L 64,160 l0-96 l 32,0 l0-32 
	l 96,0 l0,64 l 128,0 l0-64 l 96,0 l0,32 l 32,0 l0,96 l-64,0 L 384,288 l 64,0 L 448,384 l-32,0 L 416,416 z M 480,448l-32,0 l0-32 l 32,0 L 480,448 z M 480,256l-64,0 l0-64 l 64,0 L 480,256 z M 448,32l0-32 l 32,0 l0,32 L 448,32 z"  />
<glyph unicode="&#xe011;" d="M 512,64l0-96 l-96,0 l0,32 L 96,0 l0-32 L0-32 l0,96 l 32,0 L 32,384 L0,384 L0,480 l 96,0 l0-32 l 320,0 L 416,480 l 96,0 l0-96 l-32,0 l0-320 L 512,64 z M 448,0l 32,0 l0,32 l-32,0 L 448,0 z
	 M 32,0l 32,0 l0,32 L 32,32 L 32,0 z M 64,448L 32,448 l0-32 l 32,0 L 64,448 z M 480,448l-32,0 l0-32 l 32,0 L 480,448 z M 448,384l-32,0 L 416,416 L 96,416 l0-32 L 64,384 l0-320 l 32,0 l0-32 l 320,0 l0,32 l 32,0 L 448,384 z"  />
<glyph unicode="&#xe012;" d="M 256-32C 114.618-32,0,82.618,0,224S 114.618,480, 256,480s 256-114.618, 256-256S 397.382-32, 256-32z
	 M 256,433.455c-115.689,0-209.455-93.766-209.455-209.455s 93.766-209.455, 209.455-209.455s 209.455,93.766, 209.455,209.455S 371.689,433.455, 256,433.455z M 139.636,200.727l 69.818,0 l 46.545,186.182l 46.545-186.182l 69.818,0 l-116.364-116.364L 139.636,200.727z"  />
<glyph unicode="&#xe013;" d="M 488.727,235.636l-162.909,69.818l 65.117,46.522C 357.004,387.724, 309.178,410.182, 256,410.182
	C 165.818,410.182, 90.671,346.065, 73.519,260.957L 30.068,278.947C 54.784,380.905, 146.432,456.727, 256,456.727c 68.817,0, 130.42-30.068, 173.056-77.545L 488.727,421.818L 488.727,235.636 z
	 M 121.065,96.023C 154.973,60.276, 202.822,37.818, 256,37.818c 90.531,0, 165.888,64.605, 182.644,150.225l 43.404-18.572C 457.472,67.305, 365.731-8.727, 256-8.727
	c-68.817,0-130.444,30.068-173.056,77.545L 23.273,26.182l0,186.182 l 162.909-69.818L 121.065,96.023z"  />
<glyph unicode="&#xe014;" d="M 198.717,21.152l-198.934,195.8l 98.689,97.135l 100.245-98.666l 214.81,211.426l 98.689-97.135L 198.717,21.152z
		 M 53.956,216.952l 144.762-142.481l 259.328,255.241l-44.518,43.816l-214.81-211.426L 98.473,260.769L 53.956,216.952z"  />
<glyph unicode="&#xe015;" d="M 292.571,77.714l 182.857,0 l0,36.571 l-182.857,0 l0-36.571 zM 182.857,224l 292.571,0 l0,36.571 l-292.571,0 l0-36.571 zM 365.714,370.286l 109.714,0 l0,36.571 l-109.714,0 l0-36.571 zM 512,132.571l0-73.143 q0-7.429 -5.429-12.857t-12.857-5.429l-475.429,0 q-7.429,0 -12.857,5.429t-5.429,12.857l0,73.143 q0,7.429 5.429,12.857t 12.857,5.429l 475.429,0 q 7.429,0 12.857-5.429t 5.429-12.857zM 512,278.857l0-73.143 q0-7.429 -5.429-12.857t-12.857-5.429l-475.429,0 q-7.429,0 -12.857,5.429 t-5.429,12.857l0,73.143 q0,7.429 5.429,12.857t 12.857,5.429l 475.429,0 q 7.429,0 12.857-5.429t 5.429-12.857zM 512,425.143l0-73.143 q0-7.429 -5.429-12.857t-12.857-5.429l-475.429,0 q-7.429,0 -12.857,5.429t-5.429,12.857l0,73.143 q0,7.429 5.429,12.857t 12.857,5.429l 475.429,0 q 7.429,0 12.857-5.429t 5.429-12.857z"  />
<glyph unicode="&#xe016;" d="M 512,14.545c0-46.545-46.545-46.545-46.545-46.545l-133.167,133.143C 297.775,76.055, 255.418,61.091, 209.455,61.091
	c-115.689,0-209.455,93.766-209.455,209.455s 93.766,209.455, 209.455,209.455s 209.455-93.766, 209.455-209.455c0-45.964-14.988-88.32-40.076-122.857L 512,14.545z M 209.455,433.455C 119.482,433.455, 46.545,360.518, 46.545,270.545s 72.937-162.909, 162.909-162.909
	s 162.909,72.937, 162.909,162.909S 299.427,433.455, 209.455,433.455z"  />
<glyph unicode="&#xe017;" d="M 395.429,215.143l-379.429-210.857q-6.571-3.714 -11.286-0.857t-4.714,10.286l0,420.571 q0,7.429 4.714,10.286t 11.286-0.857l 379.429-210.857q 6.571-3.714 6.571-8.857t-6.571-8.857z" horiz-adv-x="402.286"  />
<glyph unicode="&#xe018;" d="M 320,480L 128,256l 96-64l-96-224l 256,256L 256,320L 320,480z"  />
<glyph unicode="&#xe019;" d="M 512,340.364l-162.909-116.364L 349.091,293.818 C 125.812,293.818, 97.303,134.563, 93.626,93.836C 99.654,363.148, 349.091,363.636, 349.091,363.636L 349.091,456.727 L 512,340.364z
	 M 93.626,93.836C 93.58,90.554, 93.091,87.738, 93.091,84.364C 93.091,84.364, 93.114,87.855, 93.626,93.836z M 46.545,363.636l0-325.818 l 372.364,0 l0,166.237 l 46.545,33.257L 465.455,37.818 c0-25.693-20.852-46.545-46.545-46.545L 46.545-8.727 
	c-25.693,0-46.545,20.852-46.545,46.545L0,363.636 c0,25.693, 20.852,46.545, 46.545,46.545l 302.545,0 c-0.023,0-91.206-0.303-173.452-46.545L 46.545,363.636 z"  />
<glyph unicode="&#xe01a;" d="M 329.143,278.857l0-36.571 q0-63.143 -42.143-109.857t-104.143-53.571l0-37.714 l 73.143,0 q 7.429,0 12.857-5.429t 5.429-12.857t-5.429-12.857t-12.857-5.429l-182.857,0 q-7.429,0 -12.857,5.429t-5.429,12.857t 5.429,12.857t 12.857,5.429l 73.143,0 l0,37.714 q-62,6.857 -104.143,53.571t-42.143,109.857l0,36.571 q0,7.429 5.429,12.857t 12.857,5.429t 12.857-5.429t 5.429-12.857l0-36.571 q0-52.857 37.571-90.429t 90.429-37.571 t 90.429,37.571t 37.571,90.429l0,36.571 q0,7.429 5.429,12.857t 12.857,5.429t 12.857-5.429t 5.429-12.857zM 256,388.571l0-146.286 q0-37.714 -26.857-64.571t-64.571-26.857t-64.571,26.857t-26.857,64.571l0,146.286 q0,37.714 26.857,64.571t 64.571,26.857t 64.571-26.857t 26.857-64.571z" horiz-adv-x="329.143"  />
<glyph unicode="&#xe01b;" d="M 77.429,210l-28.857-28.857q-12,29.429 -12,61.143l0,36.571 q0,7.429 5.429,12.857t 12.857,5.429t 12.857-5.429t 5.429-12.857l0-36.571 q0-15.143 4.286-32.286zM 395.714,382l-103.143-103.143l0-36.571 q0-37.714 -26.857-64.571t-64.571-26.857q-15.714,0 -31.143,5.429l-27.429-27.429q 27.714-14.571 58.571-14.571q 52.857,0 90.429,37.571t 37.571,90.429l0,36.571 q0,7.429 5.429,12.857t 12.857,5.429t 12.857-5.429t 5.429-12.857l0-36.571  q0-63.143 -42.143-109.857t-104.143-53.571l0-37.714 l 73.143,0 q 7.429,0 12.857-5.429t 5.429-12.857t-5.429-12.857t-12.857-5.429l-182.857,0 q-7.429,0 -12.857,5.429t-5.429,12.857t 5.429,12.857t 12.857,5.429l 73.143,0 l0,37.714 q-35.714,3.714 -67.143,23.143l-72.571-72.571q-2.857-2.857 -6.571-2.857t-6.571,2.857l-23.429,23.429q-2.857,2.857 -2.857,6.571t 2.857,6.571l 352.571,352.571q 2.857,2.857 6.571,2.857t 6.571-2.857l 23.429-23.429q 2.857-2.857 2.857-6.571 t-2.857-6.571zM 287.143,419.714l-177.429-177.429l0,146.286 q0,37.714 26.857,64.571t 64.571,26.857q 29.143,0 52.714-16.857t 33.286-43.429z" horiz-adv-x="402.286"  />
<glyph unicode="&#xe01c;" d="M 445.020,18.98c-6.143,0-12.284,2.343-16.971,7.029c-9.372,9.373-9.372,24.568,0,33.941
		C 471.868,103.771, 496.001,162.030, 496.001,224c0,61.969-24.133,120.229-67.952,164.049c-9.372,9.373-9.372,24.569,0,33.941
		c 9.372,9.372, 24.569,9.372, 33.941,0c 52.885-52.886, 82.011-123.2, 82.011-197.99c0-74.791-29.126-145.104-82.011-197.99
		C 457.304,21.323, 451.162,18.98, 445.020,18.98zM 359.765,64.235c-6.143,0-12.284,2.343-16.971,7.029c-9.372,9.372-9.372,24.568,0,33.941
		c 65.503,65.503, 65.503,172.085,0,237.588c-9.372,9.373-9.372,24.569,0,33.941c 9.372,9.371, 24.569,9.372, 33.941,0
		C 417.532,335.938, 440,281.696, 440,224c0-57.695-22.468-111.938-63.265-152.735C 372.049,66.578, 365.907,64.235, 359.765,64.235zM 274.51,109.49c-6.143,0-12.284,2.343-16.971,7.029c-9.373,9.373-9.373,24.568,0,33.941
		c 40.55,40.55, 40.55,106.529,0,147.078c-9.373,9.373-9.373,24.569,0,33.941c 9.373,9.372, 24.568,9.372, 33.941,0
		c 59.265-59.265, 59.265-155.696,0-214.961C 286.794,111.833, 280.652,109.49, 274.51,109.49zM 200.666,440.666 C 213.5,453.5 224,449.15 224,431 L 224,17 C 224-1.15 213.5-5.499 200.666,7.335 L 80,128 L 0,128 L 0,320 L 80,320 L 200.666,440.666 Z" horiz-adv-x="544"  />
<glyph unicode="&#xe01d;" d="M 200.666,440.666 C 213.5,453.5 224,449.15 224,431 L 224,17 C 224-1.15 213.5-5.499 200.666,7.335 L 80,128 L 0,128 L 0,320 L 80,320 L 200.666,440.666 ZM 480,170.426 L 480,128 L 437.574,128 L 384,181.574 L 330.426,128 L 288,128 L 288,170.426 L 341.574,224 L 288,277.574 L 288,320 L 330.426,320 L 384,266.426 L 437.574,320 L 480,320 L 480,277.574 L 426.426,224 Z"  />
<glyph unicode="&#xe01e;" d="M 496,288L 320,288 L 320,464 c0,8.832-7.152,16-16,16l-96,0 c-8.848,0-16-7.168-16-16l0-176 L 16,288 
		c-8.848,0-16-7.168-16-16l0-96 c0-8.848, 7.152-16, 16-16l 176,0 l0-176 c0-8.848, 7.152-16, 16-16l 96,0 c 8.848,0, 16,7.152, 16,16L 320,160 l 176,0 c 8.848,0, 16,7.152, 16,16l0,96 
		C 512,280.832, 504.848,288, 496,288z"  />
<glyph unicode="&#xe01f;" d="M 256,192L 384,320L 288,320L 288,448L 224,448L 224,320L 128,320 	zM 372.363,244.364L 336.493,208.493L 466.533,160L 256,81.491L 45.467,160L 175.507,208.493L 139.636,244.364L0,192L0,64L 256-32L 512,64L 512,192 	z"  />
<glyph unicode="&#xe020;" d="M0,133.333C0,118.613, 11.947,106.667, 26.667,106.667S 53.333,118.613, 53.333,133.333l0,24.533 C 53.333,170.88, 63.787,181.333, 76.8,181.333
	l 9.387,0 C 85.653,176.427, 85.333,171.317, 85.333,166.080c0-20.8, 3.947-40.651, 11.093-58.891L 64,72.309C 57.92,65.813, 53.333,51.413, 53.333,42.667l0-48 C 53.333-20.053, 65.28-32, 80-32
	s 26.667,11.947, 26.667,26.667l0,32.651 c0,4.789, 1.387,9.163, 3.84,12.896l 16.32,17.397c 20.48-23.147, 43.84-46.731, 78.4-56.107
	c 0.747-0.331, 1.6-0.544, 2.453-0.747C 209.493,0.213, 211.413,0, 213.333,0c 11.733,0, 21.333,9.6, 21.333,21.333L 234.667,202.667 c0,11.733, 9.6,21.333, 21.333,21.333c 11.733,0, 21.333-9.6, 21.333-21.333l0-181.333 
	c0-11.733, 9.6-21.333, 21.333-21.333c 2.24,0, 4.48,0.309, 6.613,1.067l 2.667,0.747c 33.077,9.163, 56.96,32.853, 77.216,55.787l 16.331-17.397
	C 403.947,36.48, 405.333,32.107, 405.333,27.317L 405.333-5.333 c0-14.72, 11.947-26.667, 26.667-26.667s 26.667,11.947, 26.667,26.667L 458.667,42.667 c0,8.747-4.587,23.147-10.667,29.643l-32.427,34.891
	C 422.72,125.44, 426.667,145.28, 426.667,166.080c0,5.227-0.309,10.347-0.853,15.253l 9.387,0 c 13.013,0, 23.467-10.453, 23.467-23.467l0-24.533 c0-14.72, 11.947-26.667, 26.667-26.667
	s 26.667,11.947, 26.667,26.667L 512,181.333 c0,29.44-23.893,53.333-53.333,53.333l-50.24,0 c-4.8,8.96-10.24,17.6-15.776,26.24L 437.333,309.333c 6.080,6.507, 10.667,21.76, 10.667,32L 448,389.333 
	C 448,404.053, 436.053,416, 421.333,416S 394.667,404.053, 394.667,389.333l0-35.2 c0-4.8-1.387-9.173-3.829-12.907l-28.693-30.72C 350.187,333.76, 341.333,360.32, 341.333,394.667
	c0,39.787-27.2,73.173-64,82.667L 277.333,426.667 c0-11.733-9.6-21.333-21.333-21.333c-11.733,0-21.333,9.6-21.333,21.333L 234.667,477.333 C 197.867,467.84, 170.667,434.453, 170.667,394.667c0-34.24-8.96-60.693-20.907-83.947l-28.587,30.507
	C 118.72,344.96, 117.333,349.333, 117.333,354.133L 117.333,389.333 C 117.333,404.053, 105.387,416, 90.667,416S 64,404.053, 64,389.333L 64,341.333 c0-10.24, 4.587-25.493, 10.667-32l 44.48-48.213
	c-5.653-8.64-10.987-17.387-15.787-26.453L 53.333,234.667 c-29.44,0-53.333-23.893-53.333-53.333L0,133.333 z"  />
<glyph unicode="&#xe021;" d="M 109.714,41.143l 219.429,0 l0,109.714 l-219.429,0 l0-109.714 zM 365.714,41.143l 36.571,0 l0,256 q0,4 -2.857,11t-5.714,9.857l-80.286,80.286q-2.857,2.857 -9.714,5.714t-11.143,2.857l0-118.857 q0-11.429 -8-19.429t-19.429-8l-164.571,0 q-11.429,0 -19.429,8t-8,19.429l0,118.857 l-36.571,0 l0-365.714 l 36.571,0 l0,118.857 q0,11.429 8,19.429t 19.429,8l 237.714,0 q 11.429,0 19.429-8t 8-19.429l0-118.857 zM 256,306.286l0,91.429 q0,3.714 -2.714,6.429t-6.429,2.714 l-54.857,0 q-3.714,0 -6.429-2.714t-2.714-6.429l0-91.429 q0-3.714 2.714-6.429t 6.429-2.714l 54.857,0 q 3.714,0 6.429,2.714t 2.714,6.429zM 438.857,297.143l0-265.143 q0-11.429 -8-19.429t-19.429-8l-384,0 q-11.429,0 -19.429,8t-8,19.429l0,384 q0,11.429 8,19.429t 19.429,8l 265.143,0 q 11.429,0 25.143-5.714t 21.714-13.714l 80-80q 8-8 13.714-21.714t 5.714-25.143z" horiz-adv-x="438.857"  />
<glyph unicode="&#xe022;" d="M 438.857,96l0-36.571 q0-7.429 -5.429-12.857t-12.857-5.429l-402.286,0 q-7.429,0 -12.857,5.429t-5.429,12.857l0,36.571 q0,7.429 5.429,12.857t 12.857,5.429l 402.286,0 q 7.429,0 12.857-5.429t 5.429-12.857zM 438.857,242.286l0-36.571 q0-7.429 -5.429-12.857t-12.857-5.429l-402.286,0 q-7.429,0 -12.857,5.429t-5.429,12.857l0,36.571 q0,7.429 5.429,12.857t 12.857,5.429l 402.286,0 q 7.429,0 12.857-5.429t 5.429-12.857zM 438.857,388.571l0-36.571 q0-7.429 -5.429-12.857 t-12.857-5.429l-402.286,0 q-7.429,0 -12.857,5.429t-5.429,12.857l0,36.571 q0,7.429 5.429,12.857t 12.857,5.429l 402.286,0 q 7.429,0 12.857-5.429t 5.429-12.857z" horiz-adv-x="438.857"  />
<glyph unicode="&#xe023;" d="M 292.571,169.143q0-7.429 -5.429-12.857l-128-128q-5.429-5.429 -12.857-5.429t-12.857,5.429l-128,128q-5.429,5.429 -5.429,12.857t 5.429,12.857t 12.857,5.429l 256,0 q 7.429,0 12.857-5.429t 5.429-12.857zM 292.571,278.857q0-7.429 -5.429-12.857t-12.857-5.429l-256,0 q-7.429,0 -12.857,5.429t-5.429,12.857t 5.429,12.857l 128,128q 5.429,5.429 12.857,5.429t 12.857-5.429l 128-128q 5.429-5.429 5.429-12.857z" horiz-adv-x="292.571"  />
<glyph unicode="&#xe024;" d="M 442.565,248.9c 0.032,0.884, 7.689,1.592, 7.689,2.477c 0.033,0.901-7.592,1.866-7.592,2.767
		c0,1.913, 7.592,3.957, 7.527,5.871c-0.064,1.914-7.753,3.522-7.849,5.42c-0.13,1.93, 7.303,4.423, 7.142,6.338
		c-0.161,1.914-7.947,2.991-8.172,4.906c-0.226,1.915, 7.045,4.842, 6.756,6.756c-0.29,1.882-8.107,2.526-8.461,4.424
		c-0.322,1.882, 6.788,5.244, 6.37,7.125c-0.387,1.881-8.268,2.042-8.719,3.909c-0.451,1.849, 6.434,5.63, 5.919,7.495
		c-0.514,1.85-8.364,1.544-8.943,3.378c-0.58,1.817, 6.080,6.016, 5.436,7.817c-0.612,1.833-8.428,1.030-9.104,2.831
		c-0.709,1.802, 5.662,6.386, 4.954,8.171c-0.74,1.77-8.525,0.515-9.297,2.252c-0.804,1.738, 5.276,6.739, 4.439,8.461
		c-0.837,1.721-8.525,0-9.394,1.688c-0.9,1.722, 4.859,7.029, 3.925,8.703c-0.932,1.673-8.492-0.546-9.489,1.11
		c-0.998,1.625, 4.471,7.319, 3.41,8.928c-1.063,1.608-8.461-1.030-9.555,0.546c-1.093,1.56, 3.99,7.576, 2.864,9.104
		c-1.158,1.544-8.364-1.544-9.555-0.032c-1.158,1.512, 3.539,7.785, 2.316,9.265c-1.222,1.464-8.268-2.059-9.523-0.611
		c-1.287,1.431, 3.057,7.978, 1.738,9.361c-1.319,1.415-8.107-2.542-9.458-1.19c-1.384,1.351, 2.542,8.171, 1.157,9.491
		c-1.415,1.319-7.947-3.009-9.394-1.738c-1.415,1.271, 2.091,8.284, 0.613,9.523c-1.48,1.222-7.754-3.506-9.265-2.317
		c-1.512,1.19, 1.576,8.428, 0.032,9.555c-1.545,1.125-7.529-3.958-9.104-2.88c-1.576,1.094, 1.062,8.509-0.547,9.539
		c-1.607,1.030-7.27-4.407-8.911-3.41c-1.64,0.997, 0.58,8.525-1.094,9.474c-1.673,0.949-7.013-4.826-8.685-3.941
		c-1.705,0.901, 0.032,8.558-1.705,9.41c-1.706,0.821-6.691-5.26-8.428-4.455c-1.737,0.771-0.482,8.541-2.252,9.265
		c-1.77,0.74-6.37-5.662-8.172-4.954c-1.77,0.675-0.998,8.493-2.799,9.12c-1.835,0.627-6.016-6.032-7.85-5.452
		c-1.833,0.579-1.511,8.428-3.378,8.927c-1.833,0.515-5.597-6.354-7.464-5.904c-1.833,0.451-1.994,8.3-3.892,8.703
		c-1.865,0.402-5.244-6.708-7.141-6.354c-1.867,0.353-2.51,8.171-4.408,8.461c-1.898,0.289-4.793-6.997-6.723-6.756
		c-1.898,0.225-3.024,7.994-4.922,8.155c-1.898,0.177-4.375-7.287-6.306-7.158c-1.898,0.113-3.474,7.801-5.405,7.849
		c-1.93,0.064-3.99-7.528-5.902-7.528c-1.93,0-3.974,7.592-5.887,7.528c-1.913-0.048-3.506-7.737-5.42-7.849
		c-1.93-0.129-4.408,7.335-6.322,7.158c-1.915-0.161-3.041-7.962-4.922-8.155c-1.915-0.241-4.842,7.045-6.74,6.756
		c-1.898-0.29-2.542-8.107-4.439-8.461c-1.883-0.354-5.244,6.755-7.11,6.354c-1.898-0.402-2.059-8.268-3.925-8.703
		c-1.849-0.482-5.63,6.402-7.495,5.887c-1.85-0.514-1.544-8.348-3.362-8.927c-1.833-0.579-6.032,6.064-7.833,5.453
		c-1.833-0.643-1.030-8.46-2.832-9.136c-1.802-0.675-6.402,5.694-8.171,4.955c-1.77-0.74-0.515-8.493-2.252-9.297
		c-1.737-0.788-6.723,5.292-8.46,4.471c-1.722-0.869,0-8.525-1.673-9.409c-1.706-0.901-7.046,4.858-8.719,3.925
		c-1.673-0.949, 0.515-8.477-1.11-9.49c-1.657-0.982-7.319,4.455-8.912,3.41c-1.625-1.046, 1.014-8.445-0.563-9.539
		c-1.56-1.094-7.576,3.99-9.104,2.83c-1.544-1.126, 1.544-8.348, 0.048-9.522c-1.528-1.19-7.801,3.539-9.249,2.284
		c-1.48-1.206, 2.026-8.268, 0.579-9.523c-1.431-1.271-7.978,3.057-9.393,1.738c-1.383-1.287, 2.574-8.107, 1.222-9.459
		c-1.351-1.351-8.171,2.574-9.49,1.174c-1.319-1.399, 3.024-7.962, 1.737-9.377c-1.254-1.448-8.3,2.059-9.522,0.579
		c-1.223-1.448, 3.506-7.737, 2.316-9.249c-1.174-1.496-8.428,1.561-9.554,0.033c-1.143-1.56, 3.957-7.544, 2.864-9.12
		c-1.094-1.544-8.493,1.094-9.523-0.515c-1.030-1.609, 4.407-7.271, 3.41-8.912c-0.997-1.641-8.557,0.547-9.49-1.126
		c-0.933-1.657, 4.841-6.997, 3.957-8.685c-0.901-1.706-8.557,0.032-9.41-1.689c-0.82-1.721, 5.26-6.676, 4.455-8.428
		c-0.772-1.754-8.541-0.499-9.265-2.268c-0.74-1.769, 5.662-6.338, 4.955-8.139c-0.676-1.802-8.493-0.998-9.12-2.832
		c-0.627-1.802, 6.032-6, 5.453-7.833c-0.579-1.817-8.428-1.512-8.944-3.362c-0.514-1.833, 6.37-5.63, 5.92-7.463
		c-0.451-1.865-8.3-2.026-8.703-3.925c-0.403-1.865, 6.708-5.228, 6.354-7.109c-0.353-1.898-8.171-2.51-8.46-4.407
		c-0.29-1.898, 6.997-4.825, 6.772-6.756c-0.241-1.865-8.011-2.975-8.172-4.889c-0.176-1.915, 7.287-4.407, 7.158-6.322
		c-0.112-1.915-7.801-3.49-7.849-5.405c-0.064-1.93, 7.528-3.973, 7.528-5.903c0-1.496-7.625-3.073-7.576-4.569
		c 0.032-1.48, 7.705-2.702, 7.769-4.182c 0.064-1.48-7.463-3.41-7.335-4.89c 0.064-1.496, 7.801-2.349, 7.946-3.829
		c 0.129-1.48-7.271-3.764-7.109-5.26c 0.176-1.48, 7.914-1.978, 8.139-3.474c 0.193-1.464-7.125-4.101-6.885-5.582
		c 0.258-1.448, 8.011-1.577, 8.268-3.056c 0.305-1.448-6.885-4.407-6.563-5.887c 0.322-1.448, 8.075-1.222, 8.413-2.671
		c 0.338-1.448-6.676-4.729-6.306-6.177c 0.37-1.415, 8.123-0.836, 8.541-2.252c 0.403-1.448-6.449-5.083-6.016-6.498
		c 0.482-1.415, 8.139-0.45, 8.654-1.833c 0.467-1.415-6.224-5.372-5.694-6.756c 0.514-1.415, 8.155-0.065, 8.687-1.448
		c 0.579-1.383-5.936-5.662-5.356-7.013c 0.563-1.383, 8.155,0.322, 8.767-1.062c 0.611-1.351-5.662-5.887-5.019-7.239
		c 0.627-1.319, 8.107,0.708, 8.782-0.612c 0.676-1.319-5.372-6.177-4.665-7.496c 0.708-1.286, 8.075,1.094, 8.815-0.193
		c 0.74-1.286-5.083-6.402-4.327-7.689c 0.772-1.254, 8.027,1.448, 8.831,0.194c 0.788-1.255-4.793-6.628-3.973-7.85
		c 0.82-1.254, 7.962,1.834, 8.815,0.612c 0.836-1.222-4.488-6.853-3.619-8.043c 0.901-1.222, 7.882,2.188, 8.783,1.030
		c 0.9-1.19-4.15-7.111-3.217-8.236c 0.949-1.158, 7.753,2.573, 8.719,1.448c 0.933-1.126-3.813-7.239-2.848-8.364
		c 0.982-1.094, 7.641,2.927, 8.638,1.865c 1.013-1.094-3.475-7.431-2.446-8.493c 1.030-1.062, 7.479,3.281, 8.557,2.22
		c 1.046-1.030-3.137-7.56-2.059-8.589c 1.094-0.997, 7.303,3.635, 8.428,2.67c 1.094-0.997-2.767-7.721-1.641-8.686
		c 1.126-0.965, 7.143,3.957, 8.268,3.025c 1.159-0.933-2.397-7.818-1.222-8.719c 1.158-0.9, 6.949,4.279, 8.139,3.41
		c 1.19-0.869-2.059-7.947-0.836-8.782c 1.222-0.869, 6.756,4.6, 7.979,3.763c 1.238-0.803-1.673-8.011-0.418-8.782
		c 1.254-0.804, 6.514,4.889, 7.785,4.117c 1.254-0.74-1.287-8.074,0-8.815s 6.257,5.212, 7.577,4.504
		c 1.302-0.676-0.917-8.139, 0.402-8.815c 1.125-0.579, 4.697,3.748, 6.53,4.552c 0.387-1.303, 0.804-2.558, 1.239-3.845
		c-0.144-2.123-0.305-4.31, 0.402-4.632c 0.258-0.113, 0.708,0.193, 1.126,0.482c 17.099-45.522, 60.964-78.046, 112.371-78.046
		c 66.24,0, 120.126,53.87, 120.126,120.094c0,5.646-0.547,11.227-1.352,16.777c 0.901-0.37, 1.641-0.612, 1.802-0.403
		c 0.257,0.353-0.998,1.849-2.252,3.361c-0.161,0.998-0.257,2.010-0.45,3.009c 2.188-0.837, 5.533-2.558, 5.92-2.058
		c 0.514,0.74-5.18,5.886-4.665,6.595c 0.514,0.74, 7.27-2.896, 7.753-2.155c 0.515,0.708-5.307,5.726-4.824,6.466
		c 0.482,0.74, 7.335-2.702, 7.817-1.962c 0.483,0.74-5.469,5.532-5.019,6.305c 0.483,0.74, 7.431-2.477, 7.883-1.737
		c 0.45,0.74-5.63,5.404-5.179,6.176c 0.45,0.74, 7.463-2.316, 7.913-1.544c 0.451,0.772-5.79,5.244-5.34,6.016
		c 0.417,0.772, 7.495-2.091, 7.913-1.319c 0.419,0.772-5.92,5.147-5.5,5.92c 0.386,0.772, 7.592-1.898, 8.010-1.094
		c 0.386,0.772-6.080,4.923-5.694,5.726c 0.354,0.772, 7.657-1.673, 8.011-0.901c 0.386,0.836-6.209,4.761-5.855,5.566
		c 0.353,0.804, 7.688-1.448, 8.042-0.611c 0.354,0.803-6.304,4.568-5.983,5.404c 0.354,0.804, 7.72-1.255, 8.042-0.418
		c 0.322,0.804-6.434,4.407-6.112,5.244c 0.322,0.804, 7.753-0.998, 8.075-0.161c 0.289,0.804-6.596,4.182-6.306,5.019
		c 0.29,0.836, 7.786-0.772, 8.075,0.064c 0.257,0.837-6.692,4.021-6.434,4.889c 0.289,0.837, 7.817-0.611, 8.074,0.226
		c 0.259,0.837-6.82,3.861-6.594,4.697c 0.257,0.836, 7.818-0.354, 8.043,0.482c 0.258,0.837-6.884,3.635-6.692,4.505
		c 0.226,0.836, 7.85-0.129, 8.075,0.708c 0.193,0.869-7.013,3.474-6.822,4.311c 0.194,0.869, 7.818,0.129, 8.011,0.997
		c 0.161,0.869-7.109,3.249-6.949,4.117c 0.194,0.869, 7.818,0.258, 7.979,1.159c 0.161,0.836-7.175,3.055-7.046,3.941
		c 0.161,0.884, 7.818,0.499, 7.947,1.367c 0.129,0.869-7.27,2.864-7.141,3.732c 0.096,0.869, 7.785,0.74, 7.881,1.625
		c 0.129,0.869-7.335,2.654-7.238,3.522c 0.096,0.869, 7.785,0.998, 7.848,1.866c 0.097,0.885-7.431,2.413-7.334,3.313
		c 0.064,0.869, 7.721,1.19, 7.785,2.059c 0.064,0.901-7.463,2.236-7.432,3.104c 0.065,0.885, 7.689,1.383, 7.754,2.268
		C 450.158,246.841, 442.565,248, 442.565,248.9z M 309.38,213.062c-0.129,0.676-0.322,1.319-0.387,2.010
		c-1.029,11.742, 7.689,22.149, 19.431,23.195c 0.643,0.049, 1.286,0.081, 1.898,0.081c 10.97,0, 20.331-8.589, 21.297-19.543
		c 1.030-11.742-7.689-22.134-19.431-23.178c-10.744-1.127-20.235,6.369-22.614,16.471l 0.096,0.016
		C 309.604,212.435, 309.442,212.74, 309.38,213.062z M 231.558,241.050c-20.895,0-37.881-16.986-37.881-37.864
		c0-3.2, 0.531-6.258, 1.271-9.217c-3.088-4.005-6.209-7.995-8.751-12.386l-0.74,4.971l-6.37,0.627
		c-11.517,1.158-20.203,10.777-20.203,22.407c0,14.123, 12.997,25.351, 27.892,21.796l 6.145-1.48l 3.024,5.582
		c 15.474,28.761, 45.377,46.615, 78.013,46.615c 25.094,0, 48.257-10.906, 64.632-28.439c-3.732,0.869-7.592,1.351-11.614,1.013
		c-14.283-1.271-25.864-10.424-31.237-22.712c-7.689,4.359-17.212,5.195-25.769,1.271c-3.506-1.609-6.402-3.958-8.88-6.66
		C 254.142,235.323, 243.558,241.050, 231.558,241.050z M 252.952,203.185c0-11.79-9.604-21.393-21.394-21.393
		c-11.806,0-21.41,9.602-21.41,21.393c0,11.806, 9.603,21.393, 21.41,21.393C 243.349,224.578, 252.952,214.992, 252.952,203.185z
		 M 289.562,16.146c-57.151,0-103.653,46.486-103.653,103.621c0,11.067, 1.865,22.23, 5.63,33.313
		c 2.864,8.992, 7.206,17.034, 12.193,24.627c 6.917-7.56, 16.777-12.386, 27.828-12.386c 20.879,0, 37.864,16.986, 37.864,37.864
		c0,0.595-0.161,1.158-0.193,1.738l 0.869,0.177c-1.093,5.437, 1.673,10.842, 6.692,13.158c 5.887,2.686, 12.996,0.064, 15.666-5.694
		c 0.387-0.901, 0.643-1.899, 0.869-2.912c 3.474-17.421, 18.884-30.578, 36.931-30.578c 1.126,0, 2.252,0.049, 3.378,0.145
		c 15.893,1.415, 28.599,12.546, 32.91,26.991l 1.191-0.096c 11.517-0.998, 20.525-10.825, 20.525-22.391c0-4.584-1.319-8.943-3.828-12.578
		l-3.667-1.994l 3.892-8.413c 5.662-13.142, 8.557-26.927, 8.557-40.969C 393.215,62.632, 346.729,16.146, 289.562,16.146zM 219.204,203.154c0-6.82, 5.518-12.322, 12.338-12.322c 6.821,0, 12.338,5.502, 12.338,12.322
		c0,6.821-5.518,12.354-12.338,12.354C 224.722,215.507, 219.204,209.974, 219.204,203.154z M 235.934,206.37
		c 2.412,0, 4.375-1.994, 4.375-4.375c0-2.445-1.962-4.407-4.375-4.407c-2.446,0-4.407,1.962-4.407,4.407
		C 231.526,204.376, 233.488,206.37, 235.934,206.37zM 335.244,204.634c 6.82,0, 12.353,5.501, 12.353,12.322c0,6.82-5.533,12.354-12.353,12.354
		s-12.321-5.534-12.321-12.354C 322.923,210.135, 328.424,204.634, 335.244,204.634z M 339.651,220.139
		c 2.413,0, 4.375-1.962, 4.375-4.375c0-2.413-1.963-4.375-4.375-4.375c-2.445,0-4.407,1.962-4.407,4.375
		C 335.244,218.177, 337.207,220.139, 339.651,220.139zM 264.308,151.937c 3.7,0, 6.692,2.991, 6.692,6.692c0,3.699-2.991,6.691-6.692,6.691
		c-3.667,0-6.675-2.992-6.675-6.691C 257.632,154.929, 260.64,151.937, 264.308,151.937zM 311.921,157.342c 3.699,0, 6.691,2.991, 6.691,6.692c0,3.699-2.993,6.691-6.691,6.691
		c-3.667,0-6.659-2.992-6.659-6.691C 305.262,160.334, 308.253,157.342, 311.921,157.342zM 286.86,123.627c-27.811-6.048-45.409-33.812-39.296-61.992c 6.113-28.214, 33.635-46.197, 61.462-40.181
		c 27.795,6.048, 45.361,33.812, 39.248,62.026C 342.129,111.66, 314.655,129.643, 286.86,123.627z M 297.926,51.726
		c-15.409,0-27.925,12.482-27.925,27.924c0,15.409, 12.515,27.924, 27.925,27.924c 15.443,0, 27.924-12.514, 27.924-27.924
		C 325.85,64.208, 313.368,51.726, 297.926,51.726zM 280.071,87.741L 283.128,71.559L 313.464,77.318L 310.408,93.5 	z"  />
<glyph unicode="&#xe025;" d="M 263.107,86.833l0-31.198 c0,0, 28.458-7.118, 49.812,7.118c0,0-14.236-24.191-56.93-24.191
		c-42.709,0-56.944,24.191-56.944,24.191c 21.354-14.236, 49.827-7.118, 49.827-7.118l0,30.808 
		c-7.508,4.171-14.236,12.345-14.236,12.345c-14.681,1.335-29.807,12.902-35.59,21.354c-5.784,8.453, 4.782,17.851, 14.681,20.91
		c 21.799,6.7, 62.715,7.118, 84.513,0.445c 9.954-3.058, 20.465-12.902, 14.681-21.355c-5.783-8.453-20.909-20.020-35.589-21.354
		C 277.33,98.789, 270.656,90.837, 263.107,86.833 M 220.399,173.363c0,0, 35.59,14.236, 71.166,0c0,0-7.117,14.236-35.576,14.236
		C 227.517,187.598, 220.399,173.363, 220.399,173.363 M 450.721,304.032c 9.398-20.798, 30.753-102.198, 9.12-159.698
		c-24.191-62.95-77.409-66.064-77.409-66.064C 333.439,9.090, 292.454,7.088, 255.989,7.088
		c-36.147,0-77.465,2.002-126.401,71.181c0,0-53.219,3.114-77.465,66.064c-21.633,57.501-0.278,138.9, 9.12,159.698
		c-12.235,9.954-56.055,52.663, 3.17,111.609c 52.385,52.663, 85.639,9.398, 95.927-7.952
		c 43.264,15.070, 71.459,15.348, 95.649,15.348c 24.233,0, 52.37-0.278, 95.69-15.348c 10.232,17.351, 43.542,60.615, 95.927,7.952
		C 506.831,356.695, 462.955,313.987, 450.721,304.032 M 459.284,219.477c-1.446-0.305-3.448-0.305-6.006-0.305
		c-10.232,0-30.419,2.002-68.623,9.704c 10.844-26.179-1.947-44.113-1.947-44.113s 14.236-35.59,0-49.827
		c-4.838-4.838-11.956-6.284-19.964-4.56c 11.678-17.1, 10.288-31.030, 10.288-31.030c-5.449,19.936-17.406,31.587-24.524,37.008
		c-2.002,1.418-3.392,2.28-4.56,2.837c-0.278,0.278-0.278,0.584-0.555,0.862c-9.677,7.702-19.075,20.215-24.747,37.593
		c-9.677,29.306-19.686,55.486-13.124,71.168c-83.734,30.474-138.621,96.817-142.625,150.035
		c-13.069-3.977-21.354-7.675-23.078-8.842c-25.915-13.93-46.379-37.564-57.501-57.222
		c-1.113-1.974-95.65-208.969, 53.497-247.98c0,0, 33.922-70.597, 120.174-70.597c 86.292,0, 120.159,70.597, 120.159,70.597
		C 449.33,103.877, 463.789,163.686, 459.284,219.477 M 429.644,332.782c-11.066,19.658-31.587,43.292-57.501,57.222
		c-4.559,2.586-52.106,23.634-116.154,23.634c-27.86,0-52.663-3.948-72.293-8.814
		c 0.278-49.826, 58.057-116.141, 145.461-141.499c 9.677,1.418, 23.078-0.278, 34.757-8.258
		c 71.737-15.655, 90.255-14.82, 93.091-14.236C 449.33,290.074, 430.256,331.948, 429.644,332.782 M 185.42,263.048
		c-15.682,3.115-42.709-1.167-56.945-29.64c-14.236-28.431,0-48.645,0-48.645s-14.236-35.59,0-49.827
		c 4.505-4.56, 11.623-6.284, 19.352-4.838c-11.678-16.823-10.566-30.753-10.566-30.753c 5.116,19.074, 16.517,30.447, 23.634,35.868
		c 2.558,2.002, 4.56,3.421, 5.728,3.977c 0.556,0.278, 0.834,0.584, 0.834,0.584c 9.954,7.675, 19.352,20.492, 25.081,37.87
		C 206.774,220.339, 221.010,255.929, 185.42,263.048 M 343.394,140.052l-0.279-0.279c0,0, 0.279-0.305, 0.834-0.584
		C 343.671,139.468, 343.671,139.774, 343.394,140.052"  />
<glyph unicode="&#xe026;" d="M 479.596,288.552c-0.093,1.423-0.777,2.318-2.154,2.672c-0.971,0.249-1.933,0.523-2.913,0.675
	c-13.981,2.196-27.98,4.34-42.104,5.319c-11.28,0.785-22.576,1.283-33.882,1.79c-21.758,0.975-43.472,0.498-65.111-2.237
	c-13.222-1.672-26.308-4.065-39.023-8.172c-6.425-2.077-12.74-4.5-19.174-6.543c-10.039-3.179-20.341-4.61-30.76-2.655
	c-6.264,1.177-12.444,2.968-18.519,4.935c-10.992,3.554-21.977,7.059-33.379,9.156c-22.171,4.095-44.511,5.973-65.339,5.75
	c-16.979-0.025-32.23-0.604-47.415-2.427c-12.453-1.494-24.889-3.158-37.325-4.846c-2.643-0.363-5.226-1.14-7.814-1.823
	c-1.385-0.363-2.3-1.283-2.347-2.824c-0.24-7.345-0.494-14.687-0.679-22.040c-0.025-1.106, 0.245-2.22, 0.414-3.326
	c 0.139-0.932, 0.65-1.579, 1.545-1.971c 0.95-0.414, 1.925-0.832, 2.769-1.414c 4.082-2.845, 6.050-7.152, 7.615-11.621
	c 1.115-3.196, 1.837-6.522, 2.76-9.781c 0.574-2.030, 1.334-4.014, 1.794-6.066c 2.157-9.589, 4.162-19.222, 6.37-28.797
	c 2.107-9.136, 4.851-18.068, 9.22-26.427c 4.88-9.338, 11.837-16.489, 21.71-20.6c 5.978-2.491, 12.195-4.078, 18.57-5.091
	c 11.423-1.806, 22.914-2.026, 34.438-1.19c 11.668,0.844, 23.188,2.609, 34.413,6.003c 8.333,2.525, 16.21,6.037, 22.897,11.727
	c 10.207,8.704, 18.427,19.038, 24.738,30.892c 6.307,11.837, 10.73,24.424, 14.699,37.184c 1.144,3.664, 2.22,7.349, 3.546,10.946
	c 1.958,5.298, 5.754,8.573, 11.406,9.443c 1.798,0.279, 3.664,0.354, 5.488,0.249c 4.24-0.249, 8.319-1.144, 11.146-4.686
	c 1.233-1.541, 2.373-3.247, 3.166-5.049c 1.546-3.508, 3.014-7.071, 4.162-10.719c 4.981-15.773, 11.592-30.802, 19.951-45.078
	c 6.931-11.863, 16.075-21.445, 28.198-28.055c 8.569-4.677, 17.738-7.657, 27.287-9.515c 14.361-2.786, 28.866-3.47, 43.447-2.828
	c 8.815,0.38, 17.527,1.503, 26.004,4.035c 8.697,2.609, 16.345,6.847, 22.061,14.108c 3.698,4.686, 6.442,9.912, 8.697,15.408
	c 4.753,11.584, 7.809,23.665, 10.57,35.84c 1.351,5.954, 2.744,11.902, 4.197,17.837c 0.76,3.103, 1.714,6.151, 2.575,9.223
	c 0.802,2.879, 1.486,5.801, 3.309,8.291c 1.832,2.503, 3.707,4.956, 6.763,6.041c 1.334,0.477, 2.010,1.405, 2.297,2.672
	c 0.219,0.98, 0.456,1.976, 0.456,2.959c 0.009,4.394, 0.009,8.789-0.118,13.175C 480.119,282.258, 479.79,285.399, 479.596,288.552
	 M 50.428,274.643c-4.753,0-8.603,0.946-8.603,2.111c0,1.174, 3.85,2.119, 8.603,2.119c 4.745,0, 8.591-0.946, 8.591-2.119
	C 59.019,275.589, 55.172,274.643, 50.428,274.643 M 216.578,228.173c-3.014-12.827-7.982-24.849-14.636-36.205
	c-3.631-6.205-7.75-12.014-12.976-16.995c-6.898-6.585-15.201-10.469-24.316-12.858c-18.452-4.829-37.114-6.037-55.992-3.208
	c-3.698,0.557-7.346,1.528-10.985,2.449c-7.493,1.925-13.179,6.29-17.502,12.723c-4.782,7.126-7.717,14.952-9.684,23.218
	c-2.567,10.79-4.011,21.758-5.099,32.782c-0.637,6.396-0.515,12.765, 0.275,19.127c 0.397,3.2, 0.654,6.45, 1.381,9.582
	c 2.567,11.145, 9.456,18.245, 20.532,21.149c 10.123,2.651, 20.436,4.213, 30.846,5.057c 7.721,0.633, 15.463,0.954, 20.461,1.246
	c 17.768-0.224, 32.687-1.355, 47.364-4.74c 5.995-1.372, 12.065-2.609, 17.549-5.53c 2.697-1.435, 5.315-3.14, 7.67-5.082
	c 3.888-3.204, 5.872-7.573, 6.704-12.512C 219.897,248.183, 218.912,238.14, 216.578,228.173 M 446.483,232.931
	c-0.388-15.491-2.998-30.612-8.519-45.15c-2.228-5.885-5.26-11.322-9.819-15.738c-5.082-4.931-11.406-7.54-18.127-9.363
	c-8.444-2.288-17.080-2.837-25.776-2.913c-13.129-0.118-26.063,1.52-38.888,4.247c-12.706,2.701-22.838,9.354-30.901,19.427
	c-10.334,12.918-16.953,27.574-20.66,43.617c-1.714,7.413-3.158,14.872-2.972,22.526c 0.085,3.292, 0.422,6.619, 1.022,9.866
	c 1.477,8.088, 6.442,13.37, 13.922,16.409c 7.514,3.039, 15.374,4.896, 23.302,6.467c 8.823,1.752, 17.721,3.061, 26.697,3.639
	c 7.008,0.456, 14.032,0.646, 18.785,0.853c 18.802-0.92, 35.24-2.305, 51.222-6.864c 2.938-0.836, 5.75-2.174, 8.527-3.478
	c 2.635-1.233, 4.66-3.251, 5.969-5.864c 1.444-2.892, 2.929-5.783, 4.069-8.793c 1.334-3.53, 1.629-7.311, 1.773-11.056
	C 446.339,244.819, 446.635,238.866, 446.483,232.931 M 461.317,274.643c-4.745,0-8.595,0.946-8.595,2.111
	c0,1.174, 3.85,2.119, 8.595,2.119s 8.595-0.946, 8.595-2.119C 469.911,275.589, 466.062,274.643, 461.317,274.643"  />
<glyph unicode="&#xe027;" d="M 255.779,289.657c 38.233,18.887, 73.343,10.659, 98.799-22.544
	c 6.992-9.127, 11.953-19.805, 18.407-29.402c 7.872-11.704, 15.668-23.575, 24.729-34.339c 9.692-11.511, 23.119-15.62, 38.136-14.893
	c 18.657,0.9, 27.851,10.267, 28.234,29.249c 0.076,4.353, 0.019,8.681, 0.019,13.288c 22.296-16.89, 20.936-49.711-3.122-66.433
	c-7.777-5.402-16.971-9.653-26.146-11.952c-42.867-10.755-84.222-6.522-123.106,15.371
	c-22.142,12.47-36.048,28.454-55.011,62.114c-2.567-4.061-4.961-7.489-6.953-11.143
	C 225.362,174.505, 186.143,153.101, 137.27,147.909c-23.809-2.529-47.589-0.766-70.258,8.323
	c-17.843,7.136-30.302,18.982-34.114,38.596c-2.959,15.219, 1.513,25.7, 16.166,35.785c0-6.072-0.326-11.737, 0.058-17.349
	c 0.958-13.935, 8.945-22.421, 22.717-24.317c 19.461-2.691, 36.068,3.295, 47.733,18.982c 10.325,13.883, 19.442,28.727, 28.195,43.687
	c 12.125,20.697, 28.195,36.489, 50.779,45.281C 218.773,304.77, 237.659,301.304, 255.779,289.657"  />
<glyph unicode="&#xe028;" d="M 373.333,368c0-14.72, 11.947-26.667, 26.667-26.667s 26.667,11.947, 26.667,26.667S 414.72,394.667, 400,394.667
	S 373.333,382.72, 373.333,368z M 373.333,197.333c0-14.72, 11.947-26.667, 26.667-26.667s 26.667,11.947, 26.667,26.667S 414.72,224, 400,224S 373.333,212.053, 373.333,197.333z M0,128c0-23.573, 19.093-42.667, 42.667-42.667
	l 181.333,0 l0-29.44 c-5.227-3.52-9.707-8-13.227-13.227L 80,42.667 C 65.28,42.667, 53.333,30.72, 53.333,16S 65.28-10.667, 80-10.667l 130.773,0 c 8.64-12.907, 23.253-21.333, 39.893-21.333
	s 31.253,8.427, 39.893,21.333L 432-10.667 c 14.72,0, 26.667,11.947, 26.667,26.667S 446.72,42.667, 432,42.667L 290.56,42.667 c-3.52,5.227-8,9.707-13.227,13.227L 277.333,85.333 l 192,0 c 23.573,0, 42.667,19.093, 42.667,42.667L 512,437.333 
	c0,23.573-19.093,42.667-42.667,42.667L 42.667,480 C 19.093,480,0,460.907,0,437.333L0,128 z M 76.8,426.667l 358.4,0 C 448.213,426.667, 458.667,416.213, 458.667,403.2l0-70.4 c0-13.013-10.453-23.467-23.467-23.467L 76.8,309.333 
	C 63.787,309.333, 53.333,319.787, 53.333,332.8L 53.333,403.2 C 53.333,416.213, 63.787,426.667, 76.8,426.667z M 76.8,256l 358.4,0 c 13.013,0, 23.467-10.453, 23.467-23.467l0-70.4 c0-13.013-10.453-23.467-23.467-23.467L 76.8,138.667 
	C 63.787,138.667, 53.333,149.12, 53.333,162.133l0,70.4 C 53.333,245.547, 63.787,256, 76.8,256z"  />
<glyph unicode="&#xe029;" d="M 395.636-32L 116.364-32 c-25.693,0-46.545,20.852-46.545,46.545L 69.818,433.455 c0,25.693, 20.852,46.545, 46.545,46.545l 279.273,0 c 25.693,0, 46.545-20.852, 46.545-46.545l0-418.909 
	C 442.182-11.148, 421.329-32, 395.636-32z M 395.636,433.455L 116.364,433.455 l0-418.909 l 279.273,0 L 395.636,433.455 z M 349.091,84.364L 162.909,84.364 L 162.909,386.909 l 186.182,0 L 349.091,84.364 z M 279.273,37.818l-46.545,0 l0,23.273 l 46.545,0 L 279.273,37.818 z"  />
<glyph unicode="&#xe02a;" d="M 400,480L 80,480 C 53.6,480, 32,458.4, 32,432l0-416 c0-26.4, 21.6-48, 48-48l 320,0 c 26.4,0, 48,21.6, 48,48L 448,432 C 448,458.4, 426.4,480, 400,480z M 240-16
	c-8.836,0-16,7.163-16,16s 7.164,16, 16,16s 16-7.163, 16-16S 248.836-16, 240-16z M 384,32L 96,32 L 96,416 l 288,0 L 384,32 z"  />
<glyph unicode="&#xe02b;" d="M 512,64L 512,448 L0,448 l0-384 l 224,0 l0-32 l-96,0 l0-32 l 256,0 l0,32 l-96,0 l0,32 L 512,64 z M 64,384l 384,0 l0-256 L 64,128 L 64,384 z"  />
<glyph unicode="&#xe02c;" d="M 128,394.667C 116.267,394.667, 106.667,385.067, 106.667,373.333l0-298.667 c0-11.733, 7.381-15.189, 16.405-7.659l 95.211,79.339c 9.024,7.531, 23.765,7.531, 32.789,0l 95.211-79.339
			C 355.285,59.477, 362.667,62.933, 362.667,74.667L 362.667,373.333 c0,11.733-9.6,21.333-21.333,21.333L 128,394.667 z"  />
<glyph unicode="&#x20;" horiz-adv-x="256" />
</font>
</defs>
</svg>
